<?xml version="1.0" standalone="no"?>
<!DOCTYPE svg PUBLIC "-//W3C//DTD SVG 20010904//EN"
 "http://www.w3.org/TR/2001/REC-SVG-20010904/DTD/svg10.dtd">
<svg version="1.0" xmlns="http://www.w3.org/2000/svg"
 width="851.000000pt" height="545.000000pt" viewBox="0 0 851.000000 545.000000"
 preserveAspectRatio="xMidYMid meet">

<g transform="translate(0.000000,545.000000) scale(0.100000,-0.100000)"
fill="#000000" stroke="none">
<path d="M3160 4736 c-115 -26 -210 -101 -258 -204 -26 -55 -27 -63 -30 -269
l-3 -213 -25 -6 c-14 -4 -169 -4 -345 -2 -246 3 -322 1 -330 -8 -7 -8 -9 -139
-7 -381 l3 -368 26 -56 c46 -97 124 -169 224 -204 58 -21 122 -23 748 -24
l407 -1 0 -649 c0 -561 2 -650 15 -654 9 -4 40 24 91 83 42 50 82 90 88 89 6
0 43 -38 81 -84 39 -46 75 -86 82 -89 7 -3 47 34 89 82 42 48 82 87 89 87 7 0
43 -36 80 -80 37 -44 74 -83 81 -88 9 -5 37 20 90 80 42 49 82 88 88 88 7 0
43 -36 81 -80 38 -44 74 -83 79 -87 15 -10 28 0 101 87 37 44 73 80 80 80 7 0
48 -39 90 -87 62 -72 80 -86 93 -78 9 5 46 45 82 89 36 44 70 80 76 80 6 1 46
-39 88 -89 47 -56 81 -87 90 -84 7 3 46 43 85 90 40 46 76 84 80 84 5 0 41
-38 82 -85 122 -143 110 -297 107 1308 l-3 1392 -28 57 c-35 72 -119 149 -195
180 l-57 23 -1080 2 c-827 1 -1093 -1 -1135 -11z m222 -65 c66 -32 125 -92
156 -159 l27 -57 3 -699 c2 -559 0 -701 -10 -708 -14 -9 -788 -11 -811 -2 -10
3 4 23 48 67 44 44 69 79 86 122 l24 60 5 585 5 585 28 57 c34 69 100 130 171
158 70 28 200 23 268 -9z m2058 2 c59 -29 124 -94 152 -152 l23 -46 3 -1342
c1 -848 -1 -1343 -7 -1343 -6 0 -36 32 -67 70 -32 39 -65 70 -74 70 -8 0 -47
-38 -85 -84 -39 -47 -75 -87 -81 -90 -7 -2 -44 34 -83 80 -40 47 -79 88 -88
91 -11 4 -30 -11 -62 -48 -25 -30 -62 -71 -81 -92 l-35 -38 -78 90 c-43 50
-84 91 -91 91 -7 0 -48 -40 -90 -90 -43 -49 -78 -90 -80 -90 -1 0 -37 40 -80
90 -43 49 -84 90 -91 90 -8 0 -48 -41 -91 -90 -42 -50 -78 -90 -79 -90 -2 0
-38 41 -81 90 -43 50 -84 90 -91 90 -7 0 -47 -40 -90 -90 l-77 -90 -24 22
c-13 13 -49 53 -80 90 -31 38 -62 68 -68 68 -7 0 -40 -31 -75 -70 -34 -38 -66
-70 -70 -70 -5 0 -9 596 -9 1325 0 1275 -1 1328 -19 1379 -24 70 -74 141 -117
169 -18 12 -34 25 -34 30 0 4 440 6 978 5 l977 -3 45 -22z m-2579 -680 c7 -7
9 -131 7 -349 -5 -385 -7 -397 -83 -482 -67 -75 -132 -105 -236 -110 -78 -4
-92 -2 -148 23 -67 30 -125 87 -163 157 -23 42 -23 48 -26 412 l-3 369 321 -5
c195 -3 325 -9 331 -15z"/>
<path d="M3080 670 c0 -87 4 -140 10 -140 6 0 10 32 10 75 0 83 18 115 63 115
43 0 57 -29 57 -113 0 -45 4 -77 10 -77 6 0 10 35 10 84 0 79 -2 86 -26 105
-32 25 -46 26 -84 6 l-30 -16 0 51 c0 27 -4 50 -10 50 -6 0 -10 -53 -10 -140z"/>
<path d="M3306 801 c-4 -5 -2 -12 3 -15 5 -4 12 -2 15 3 4 5 2 12 -3 15 -5 4
-12 2 -15 -3z"/>
<path d="M3970 670 c0 -87 4 -140 10 -140 6 0 10 32 10 75 0 83 18 115 64 115
44 0 56 -24 56 -111 0 -46 4 -79 10 -79 6 0 10 35 10 84 0 64 -4 88 -16 100
-25 25 -61 30 -89 12 -13 -9 -27 -16 -30 -16 -3 0 -5 23 -5 50 0 28 -4 50 -10
50 -6 0 -10 -53 -10 -140z"/>
<path d="M2400 665 c0 -83 4 -135 10 -135 6 0 10 43 10 110 0 61 3 110 8 109
4 0 43 -48 87 -106 44 -59 86 -108 93 -111 9 -3 12 28 12 132 0 168 -18 185
-22 20 l-3 -115 -85 115 c-47 63 -91 115 -97 116 -10 0 -13 -33 -13 -135z"/>
<path d="M2950 765 c0 -16 -6 -25 -15 -25 -8 0 -15 -4 -15 -10 0 -5 7 -10 15
-10 12 0 15 -15 15 -73 0 -49 5 -80 16 -95 16 -23 48 -29 59 -12 3 6 -2 10
-12 10 -34 0 -43 21 -43 97 0 71 1 73 25 73 14 0 25 5 25 10 0 6 -11 10 -25
10 -20 0 -25 5 -25 25 0 14 -4 25 -10 25 -5 0 -10 -11 -10 -25z"/>
<path d="M5390 765 c0 -16 -6 -25 -15 -25 -8 0 -15 -4 -15 -10 0 -5 7 -10 15
-10 12 0 15 -15 15 -73 0 -49 5 -80 16 -95 16 -23 48 -29 59 -12 3 6 -2 10
-12 10 -34 0 -43 21 -43 97 0 71 1 73 25 73 14 0 25 5 25 10 0 6 -11 10 -25
10 -20 0 -25 5 -25 25 0 14 -4 25 -10 25 -5 0 -10 -11 -10 -25z"/>
<path d="M2744 730 c-12 -4 -31 -21 -43 -36 -64 -82 38 -201 127 -148 108 63
31 231 -84 184z m91 -35 c67 -66 -7 -177 -88 -133 -54 28 -63 89 -21 132 34
34 77 34 109 1z"/>
<path d="M3310 635 c0 -63 4 -105 10 -105 6 0 10 42 10 105 0 63 -4 105 -10
105 -6 0 -10 -42 -10 -105z"/>
<path d="M3390 635 c0 -63 4 -105 10 -105 6 0 10 32 10 75 0 83 18 115 63 115
43 0 57 -29 57 -113 0 -45 4 -77 10 -77 6 0 10 35 10 84 0 79 -2 86 -26 105
-32 25 -46 26 -84 6 -27 -14 -30 -14 -30 0 0 8 -4 15 -10 15 -6 0 -10 -42 -10
-105z"/>
<path d="M3648 725 c-59 -32 -58 -139 2 -170 39 -20 62 -19 94 6 l26 20 0 -30
c0 -46 -33 -74 -78 -69 -21 3 -45 8 -54 12 -11 5 -18 4 -18 -2 0 -16 67 -34
100 -27 57 12 70 44 70 166 0 66 -4 109 -10 109 -5 0 -10 -9 -10 -21 l0 -20
-26 20 c-31 24 -58 26 -96 6z m96 -26 c70 -55 -5 -171 -83 -129 -31 16 -46 65
-31 100 22 53 68 65 114 29z"/>
<path d="M4241 726 c-31 -17 -50 -53 -51 -94 0 -26 9 -43 34 -68 19 -19 43
-34 54 -34 29 0 82 21 82 32 0 6 -7 7 -17 3 -46 -20 -82 -17 -107 9 -47 46
-36 56 59 56 52 0 85 4 85 10 0 6 -7 26 -15 45 -21 51 -75 68 -124 41z m94
-31 c39 -38 32 -45 -50 -45 -46 0 -75 4 -75 10 0 21 49 60 75 60 14 0 37 -11
50 -25z"/>
<path d="M4430 635 c0 -63 4 -105 10 -105 6 0 10 27 10 60 0 72 20 117 55 126
14 3 25 10 25 15 0 14 -12 11 -47 -11 -33 -20 -33 -20 -33 0 0 11 -4 20 -10
20 -6 0 -10 -42 -10 -105z"/>
<path d="M4618 724 c-35 -19 -48 -43 -48 -91 0 -74 58 -116 131 -94 21 6 39
17 39 22 0 7 -7 8 -17 4 -10 -5 -32 -10 -48 -12 -36 -5 -85 28 -85 58 0 17 8
19 85 19 l85 0 -6 28 c-8 35 -58 82 -87 82 -12 -1 -34 -7 -49 -16z m89 -19
c11 -8 23 -24 26 -35 5 -19 1 -20 -69 -20 -83 0 -95 12 -48 49 31 25 61 27 91
6z"/>
<path d="M4913 728 c3 -7 21 -52 41 -100 49 -118 47 -140 -14 -150 -22 -4 -23
-5 -7 -13 36 -15 62 9 94 91 17 44 40 103 52 132 13 33 17 52 10 50 -7 -2 -26
-41 -44 -86 -17 -45 -34 -84 -37 -87 -3 -3 -22 35 -43 85 -21 49 -42 90 -47
90 -6 0 -8 -6 -5 -12z"/>
<path d="M5190 727 c-14 -7 -33 -29 -43 -50 -16 -31 -17 -42 -7 -73 22 -67
115 -95 159 -48 15 15 14 16 -4 10 -50 -19 -80 -18 -106 3 -15 11 -29 30 -32
41 -5 19 -1 20 79 20 84 0 84 0 84 26 0 32 -50 84 -82 84 -13 0 -34 -6 -48
-13z m90 -27 c39 -39 27 -50 -56 -50 -80 0 -82 2 -41 48 26 28 70 29 97 2z"/>
</g>
</svg>
