<svg id="visual" viewBox="0 0 900 600" width="900" height="600" xmlns="http://www.w3.org/2000/svg" xmlns:xlink="http://www.w3.org/1999/xlink" version="1.1"><path d="M0 127L13.7 138C27.3 149 54.7 171 82 181C109.3 191 136.7 189 163.8 198C191 207 218 227 245.2 237C272.3 247 299.7 247 327 238C354.3 229 381.7 211 409 192C436.3 173 463.7 153 491 165C518.3 177 545.7 221 573 242C600.3 263 627.7 261 654.8 262C682 263 709 267 736.2 241C763.3 215 790.7 159 818 146C845.3 133 872.7 163 886.3 178L900 193L900 0L886.3 0C872.7 0 845.3 0 818 0C790.7 0 763.3 0 736.2 0C709 0 682 0 654.8 0C627.7 0 600.3 0 573 0C545.7 0 518.3 0 491 0C463.7 0 436.3 0 409 0C381.7 0 354.3 0 327 0C299.7 0 272.3 0 245.2 0C218 0 191 0 163.8 0C136.7 0 109.3 0 82 0C54.7 0 27.3 0 13.7 0L0 0Z" fill="#ffffff"></path><path d="M0 193L13.7 216C27.3 239 54.7 285 82 301C109.3 317 136.7 303 163.8 311C191 319 218 349 245.2 354C272.3 359 299.7 339 327 319C354.3 299 381.7 279 409 272C436.3 265 463.7 271 491 295C518.3 319 545.7 361 573 372C600.3 383 627.7 363 654.8 353C682 343 709 343 736.2 327C763.3 311 790.7 279 818 281C845.3 283 872.7 319 886.3 337L900 355L900 191L886.3 176C872.7 161 845.3 131 818 144C790.7 157 763.3 213 736.2 239C709 265 682 261 654.8 260C627.7 259 600.3 261 573 240C545.7 219 518.3 175 491 163C463.7 151 436.3 171 409 190C381.7 209 354.3 227 327 236C299.7 245 272.3 245 245.2 235C218 225 191 205 163.8 196C136.7 187 109.3 189 82 179C54.7 169 27.3 147 13.7 136L0 125Z" fill="#ffdfc4"></path><path d="M0 289L13.7 311C27.3 333 54.7 377 82 391C109.3 405 136.7 389 163.8 389C191 389 218 405 245.2 410C272.3 415 299.7 409 327 392C354.3 375 381.7 347 409 337C436.3 327 463.7 335 491 359C518.3 383 545.7 423 573 435C600.3 447 627.7 431 654.8 428C682 425 709 435 736.2 424C763.3 413 790.7 381 818 373C845.3 365 872.7 381 886.3 389L900 397L900 353L886.3 335C872.7 317 845.3 281 818 279C790.7 277 763.3 309 736.2 325C709 341 682 341 654.8 351C627.7 361 600.3 381 573 370C545.7 359 518.3 317 491 293C463.7 269 436.3 263 409 270C381.7 277 354.3 297 327 317C299.7 337 272.3 357 245.2 352C218 347 191 317 163.8 309C136.7 301 109.3 315 82 299C54.7 283 27.3 237 13.7 214L0 191Z" fill="#fec08b"></path><path d="M0 517L13.7 516C27.3 515 54.7 513 82 517C109.3 521 136.7 531 163.8 540C191 549 218 557 245.2 561C272.3 565 299.7 565 327 555C354.3 545 381.7 525 409 515C436.3 505 463.7 505 491 515C518.3 525 545.7 545 573 549C600.3 553 627.7 541 654.8 540C682 539 709 549 736.2 547C763.3 545 790.7 531 818 529C845.3 527 872.7 537 886.3 542L900 547L900 395L886.3 387C872.7 379 845.3 363 818 371C790.7 379 763.3 411 736.2 422C709 433 682 423 654.8 426C627.7 429 600.3 445 573 433C545.7 421 518.3 381 491 357C463.7 333 436.3 325 409 335C381.7 345 354.3 373 327 390C299.7 407 272.3 413 245.2 408C218 403 191 387 163.8 387C136.7 387 109.3 403 82 389C54.7 375 27.3 331 13.7 309L0 287Z" fill="#f5a152"></path><path d="M0 601L13.7 601C27.3 601 54.7 601 82 601C109.3 601 136.7 601 163.8 601C191 601 218 601 245.2 601C272.3 601 299.7 601 327 601C354.3 601 381.7 601 409 601C436.3 601 463.7 601 491 601C518.3 601 545.7 601 573 601C600.3 601 627.7 601 654.8 601C682 601 709 601 736.2 601C763.3 601 790.7 601 818 601C845.3 601 872.7 601 886.3 601L900 601L900 545L886.3 540C872.7 535 845.3 525 818 527C790.7 529 763.3 543 736.2 545C709 547 682 537 654.8 538C627.7 539 600.3 551 573 547C545.7 543 518.3 523 491 513C463.7 503 436.3 503 409 513C381.7 523 354.3 543 327 553C299.7 563 272.3 563 245.2 559C218 555 191 547 163.8 538C136.7 529 109.3 519 82 515C54.7 511 27.3 513 13.7 514L0 515Z" fill="#e78300"></path></svg>