<?xml version="1.0" encoding="iso-8859-1"?>
<!-- Uploaded to: SVG Repo, www.svgrepo.com, Generator: SVG Repo Mixer Tools -->
<svg height="800px" width="800px" version="1.1" id="Layer_1" xmlns="http://www.w3.org/2000/svg" xmlns:xlink="http://www.w3.org/1999/xlink" 
	 viewBox="0 0 512 512" xml:space="preserve">
<g>
	<path style="fill:#FFC107;" d="M83.201,200.346c-16.11,0-29.217-13.107-29.217-29.217v-12.8c0-16.11,13.107-29.217,29.217-29.217
		h21.081c0.683,0,1.32,0.307,1.744,0.844c0.424,0.536,0.579,1.225,0.423,1.891c-2.687,11.459-4.048,23.271-4.048,35.108
		c0,10.345,1.041,20.68,3.093,30.72c0.135,0.658-0.032,1.333-0.456,1.853s-1.053,0.818-1.724,0.818H83.201z"/>
	<path style="fill:#FFC107;" d="M408.685,200.346c-0.671,0-1.3-0.298-1.725-0.819c-0.424-0.52-0.59-1.195-0.456-1.853
		c2.052-10.04,3.093-20.375,3.093-30.72c0-11.837-1.362-23.65-4.048-35.108c-0.156-0.666-0.002-1.355,0.422-1.89
		c0.425-0.536,1.062-0.844,1.745-0.844h21.081c16.11,0,29.217,13.107,29.217,29.217v12.8c0,16.11-13.107,29.217-29.217,29.217
		H408.685z"/>
</g>
<circle style="fill:#FFE1C2;" cx="255.997" cy="166.955" r="111.303"/>
<path style="fill:#2196F3;" d="M442.433,500.87H69.566c0-73.115,44.054-135.935,107.074-163.36
	c21.76-9.472,45.768-14.725,71.012-14.725h16.695c25.266,0,49.296,5.265,71.067,14.748c20.602,8.971,39.19,21.738,54.861,37.409
	C422.498,407.174,442.433,451.696,442.433,500.87z"/>
<path style="fill:#ECF0F1;" d="M335.414,337.532l-2.226,1.948l-77.189,79.025l-77.189-79.025l-2.17-1.97
	c21.76-9.472,45.768-14.725,71.012-14.725h16.695C289.613,322.784,313.643,328.049,335.414,337.532z"/>
<g>
	<path style="fill:#231F20;" d="M428.798,120.208H416.28c-9.552-32.61-29.16-61.994-55.881-83.458
		C330.899,13.051,293.821,0,255.999,0S181.101,13.051,151.6,36.75c-26.721,21.464-46.329,50.848-55.881,83.457H83.201
		c-21.021,0-38.121,17.101-38.121,38.121v12.8c0,21.021,17.101,38.121,38.121,38.121h11.283c2.195,8.373,5.045,16.585,8.521,24.507
		c1.775,4.046,5.774,6.658,10.192,6.658h44.918c22.36,29.719,57.915,48.973,97.885,48.973c67.51,0,122.434-54.924,122.434-122.434
		S323.509,44.521,255.999,44.521S133.566,99.445,133.566,166.955c0,18.269,4.029,35.613,11.234,51.2h-24.133
		c-2.745-7.229-4.907-14.686-6.447-22.254c0-0.002-0.001-0.004-0.002-0.007c0-0.001,0-0.002,0-0.003
		c-1.933-9.455-2.913-19.191-2.913-28.936c0-11.154,1.283-22.283,3.813-33.077c0-0.002,0-0.004,0.001-0.006
		c15.427-65.716,73.357-111.612,140.88-111.612s125.453,45.896,140.88,111.612c0,0.002,0,0.004,0.001,0.006
		c2.53,10.794,3.813,21.923,3.813,33.077c0,9.745-0.979,19.48-2.913,28.936c0,0.001,0,0.002,0,0.003
		c0,0.002-0.001,0.004-0.002,0.007c-2.018,9.915-5.102,19.643-9.169,28.913c-2.47,5.63,0.091,12.194,5.721,14.664
		c1.456,0.639,2.972,0.941,4.465,0.941c4.284,0,8.368-2.488,10.199-6.662c3.476-7.921,6.326-16.132,8.521-24.507h11.283
		c21.021,0,38.121-17.101,38.121-38.121v-12.8C466.919,137.308,449.819,120.208,428.798,120.208z M90.245,186.99h-7.044
		c-8.745,0-15.861-7.116-15.861-15.861v-12.8c0-8.745,7.116-15.861,15.861-15.861h7.64c-1.194,8.091-1.796,16.284-1.796,24.487
		C89.044,173.657,89.447,180.357,90.245,186.99z M255.999,66.782c55.235,0,100.173,44.938,100.173,100.173
		s-44.938,100.173-100.173,100.173c-26.239,0-50.149-10.145-68.026-26.713h68.026c6.147,0,11.13-4.983,11.13-11.13
		s-4.983-11.13-11.13-11.13h-86.066c-8.953-14.993-14.107-32.504-14.107-51.2C155.826,111.72,200.764,66.782,255.999,66.782z
		 M444.659,171.129c0,8.745-7.116,15.861-15.861,15.861h-7.044c0.798-6.633,1.201-13.333,1.201-20.035
		c0-8.203-0.602-16.396-1.796-24.487h7.64c8.745,0,15.861,7.116,15.861,15.861V171.129z"/>
	<path style="fill:#231F20;" d="M339.86,327.328c-23.877-10.4-49.283-15.674-75.513-15.674h-16.695
		c-26.21,0-51.596,5.266-75.453,15.65C103.091,357.38,58.436,425.507,58.436,500.87c0,6.147,4.983,11.13,11.13,11.13h372.866
		c6.147,0,11.13-4.983,11.13-11.13c0-50.533-19.681-98.05-55.417-133.799C381.266,350.19,361.655,336.818,339.86,327.328z
		 M264.347,333.915c17.504,0,34.585,2.662,50.979,7.924l-59.327,60.738l-59.326-60.737c16.392-5.261,33.472-7.925,50.978-7.925
		H264.347z M81.066,489.739c0.45-6.776,1.332-13.461,2.58-20.039h28.772c6.147,0,11.13-4.983,11.13-11.13s-4.983-11.13-11.13-11.13
		H89.485c14.062-41.642,44.249-76.74,84.867-96.595l73.685,75.438c2.095,2.145,4.965,3.354,7.963,3.354
		c2.997,0,5.868-1.209,7.963-3.354l73.698-75.451c16.568,8.096,31.595,18.829,44.745,31.979
		c18.485,18.492,32.091,40.556,40.195,64.629h-78.114c-6.147,0-11.13,4.983-11.13,11.13s4.983,11.13,11.13,11.13h83.919
		c1.237,6.585,2.093,13.272,2.534,20.039H81.066z"/>
	<path style="fill:#231F20;" d="M295.512,447.44h-6.122c-6.147,0-11.13,4.983-11.13,11.13s4.983,11.13,11.13,11.13h6.122
		c6.147,0,11.13-4.983,11.13-11.13S301.659,447.44,295.512,447.44z"/>
</g>
</svg>